<svg xmlns="http://www.w3.org/2000/svg" fill="none" viewBox="0 0 15 15">
  <path d="M7.5 0A7.5 7.5 0 1 0 15 7.5 7.509 7.509 0 0 0 7.5 0Zm0 14c-1.627 0-3.35-.85-4.5-2S1 9.127 1 7.5c0-1.627.85-3.35 2-4.5s2.873-2 4.5-2c1.627 0 3.35.85 4.5 2s2 2.873 2 4.5c-.002 1.627-.85 3.35-2 4.5s-2.873 1.998-4.5 2Z"/>
  <path d="M10.392 4.607a.682.682 0 0 0-.964 0L7.5 6.537l-1.928-1.93a.682.682 0 1 0-.964.964l1.928 1.93-1.928 1.928a.682.682 0 1 0 .964.964L7.5 8.464l1.928 1.93a.682.682 0 1 0 .964-.965L8.464 7.5l1.928-1.929a.681.681 0 0 0 0-.964Z"/>
</svg>